<?xml version="1.0" encoding="UTF-8"?>
<svg id="Livello_2" data-name="Livello 2" xmlns="http://www.w3.org/2000/svg" xmlns:xlink="http://www.w3.org/1999/xlink" viewBox="0 0 140.82 148.17">
  <defs>
    <style>
      .cls-1 {
        letter-spacing: .39em;
      }

      .cls-2 {
        letter-spacing: -.04em;
      }

      .cls-3 {
        letter-spacing: .39em;
      }

      .cls-4 {
        fill: #212121;
        font-family: Montserrat-SemiBold, Montserrat;
        font-size: 8px;
        font-weight: 600;
      }

      .cls-5 {
        letter-spacing: -.01em;
      }

      .cls-6 {
        fill: #651fff;
        font-family: Montserrat-ExtraBold, Montserrat;
        font-size: 23.2px;
        font-weight: 700;
      }

      .cls-7 {
        letter-spacing: .36em;
      }

      .cls-8 {
        letter-spacing: .4em;
      }

      .cls-9 {
        letter-spacing: .4em;
      }

      .cls-10 {
        fill: url(#linear-gradient);
      }
    </style>
    <linearGradient id="linear-gradient" x1="22.87" y1="19.33" x2="117.95" y2="114.41" gradientUnits="userSpaceOnUse">
      <stop offset="0" stop-color="#e040fb"/>
      <stop offset="1" stop-color="#651fff"/>
    </linearGradient>
  </defs>
  <g id="OBJECTS">
    <g>
      <g>
        <text class="cls-6" transform="translate(0 131.78)"><tspan x="0" y="0">TR</tspan><tspan class="cls-2" x="31.9" y="0">A</tspan><tspan class="cls-5" x="49.23" y="0">V</tspan><tspan x="66.65" y="0">ELING</tspan></text>
        <text class="cls-4" transform="translate(15.25 146.1)"><tspan class="cls-9" x="0" y="0">TR</tspan><tspan class="cls-7" x="17.06" y="0">A</tspan><tspan class="cls-1" x="25.96" y="0">V</tspan><tspan class="cls-8" x="34.87" y="0">EL </tspan><tspan class="cls-3" x="56.83" y="0">A</tspan><tspan class="cls-9" x="65.94" y="0">GEN</tspan><tspan class="cls-3" x="93.56" y="0">C</tspan><tspan class="cls-9" x="102.5" y="0">Y</tspan></text>
      </g>
      <path class="cls-10" d="M70.41,0C32.8,0,2.31,30.49,2.31,68.09c0,13.3,3.83,25.7,10.42,36.19,1.16-8.37,8.33-14.82,17.02-14.82,2.33,0,4.54,.47,6.57,1.3,1.03-4.93,5.4-8.63,10.63-8.63,2.78,0,5.31,1.05,7.23,2.77,3.03-11.66,13.63-20.26,26.23-20.26,14.33,0,26.05,11.12,27.03,25.2,1.16-.25,2.37-.38,3.6-.38,8.69,0,15.86,6.45,17.02,14.82,6.59-10.49,10.42-22.89,10.42-36.19C138.5,30.49,108.02,0,70.41,0Zm40.89,24.06l-37.11,22.69-10.51,14.88c-1.49,2.11-3.63,3.66-6.1,4.42l-6.1,1.88,4.17-10.1-24.01,11.15c-3.45,1.9-7.1,3.4-10.88,4.48-1.56,.44-2.8-1.33-1.85-2.64l4.63-6.42-7.44-3.02,7.61-4.83,8.74,.5,16.68-9.71-34.14-4.17,10.06-5.24c1.44-.75,3.03-1.19,4.65-1.3l43.15-2.76,19.59-11.09c4.69-2.66,10.16-3.58,15.46-2.61l2.75,.5c1.66,.3,2.07,2.49,.64,3.38Z"/>
    </g>
  </g>
</svg>