<?xml version="1.0" encoding="UTF-8" standalone="no" ?>
<!DOCTYPE svg PUBLIC "-//W3C//DTD SVG 1.1//EN" "http://www.w3.org/Graphics/SVG/1.1/DTD/svg11.dtd">
<svg xmlns="http://www.w3.org/2000/svg" xmlns:xlink="http://www.w3.org/1999/xlink" version="1.1" width="1080" height="1080" viewBox="0 0 1080 1080" xml:space="preserve">
<desc>Created with Fabric.js 5.2.4</desc>
<defs>
</defs>
<g transform="matrix(1 0 0 1 540 540)" id="16080333-579a-4d82-b0c3-bd3aa29d4afc"  >
<rect style="stroke: none; stroke-width: 1; stroke-dasharray: none; stroke-linecap: butt; stroke-dashoffset: 0; stroke-linejoin: miter; stroke-miterlimit: 4; fill: rgb(255,255,255); fill-rule: nonzero; opacity: 1; visibility: hidden;" vector-effect="non-scaling-stroke"  x="-540" y="-540" rx="0" ry="0" width="1080" height="1080" />
</g>
<g transform="matrix(1 0 0 1 540 540)" id="bb303139-f396-446c-b973-f01998d8e0b3"  >
</g>
<g transform="matrix(18.62 0 0 18.62 540 540)"  >
<g style=""   >
		<g transform="matrix(1 0 0 1 -27.77 0.1)"  >
<path style="stroke: none; stroke-width: 1; stroke-dasharray: none; stroke-linecap: butt; stroke-dashoffset: 0; stroke-linejoin: miter; stroke-miterlimit: 4; fill: rgb(0,0,0); fill-rule: nonzero; opacity: 1;" vector-effect="non-scaling-stroke"  transform=" translate(-1.23, -8.1)" d="M 0 8 C 0 9.87632 0.645949 11.6018 1.7276 12.9661 L 2.46553 12.3819 C 1.51113 11.178 0.941177 9.65557 0.941177 8 C 0.941177 6.42141 1.45936 4.96384 2.33491 3.78813 L 1.57956 3.22654 C 0.587274 4.55902 0 6.21093 0 8 Z" stroke-linecap="round" />
</g>
		<g transform="matrix(1 0 0 1 -14.23 0.1)"  >
<path style="stroke: none; stroke-width: 1; stroke-dasharray: none; stroke-linecap: butt; stroke-dashoffset: 0; stroke-linejoin: miter; stroke-miterlimit: 4; fill: rgb(0,0,0); fill-rule: nonzero; opacity: 1;" vector-effect="non-scaling-stroke"  transform=" translate(-14.77, -8.1)" d="M 16 8 C 16 6.21093 15.4127 4.55902 14.4204 3.22654 L 13.6651 3.78813 C 14.5406 4.96384 15.0588 6.42141 15.0588 8 C 15.0588 9.65557 14.4889 11.178 13.5345 12.3819 L 14.2724 12.9661 C 15.3541 11.6018 16 9.87632 16 8 Z" stroke-linecap="round" />
</g>
		<g transform="matrix(1 0 0 1 -21 -6.8)"  >
<path style="stroke: none; stroke-width: 1; stroke-dasharray: none; stroke-linecap: butt; stroke-dashoffset: 0; stroke-linejoin: miter; stroke-miterlimit: 4; fill: rgb(0,0,0); fill-rule: nonzero; opacity: 1;" vector-effect="non-scaling-stroke"  transform=" translate(-8, -1.2)" d="M 8 0 C 9.83269 0 11.5214 0.616258 12.8703 1.65286 L 12.2974 2.39958 C 11.1072 1.48493 9.61708 0.941177 8 0.941177 C 6.38293 0.941177 4.89285 1.48493 3.70265 2.39957 L 3.12967 1.65285 C 4.47857 0.616256 6.16732 0 8 0 Z" stroke-linecap="round" />
</g>
		<g transform="matrix(1 0 0 1 -21 -4.83)"  >
<path style="stroke: none; stroke-width: 1; stroke-dasharray: none; stroke-linecap: butt; stroke-dashoffset: 0; stroke-linejoin: miter; stroke-miterlimit: 4; fill: rgb(0,0,0); fill-rule: nonzero; opacity: 1;" vector-effect="non-scaling-stroke"  transform=" translate(-8, -3.17)" d="M 8 2.19608 C 9.3296 2.19608 10.5548 2.64317 11.5334 3.39521 L 10.9604 4.14193 C 10.1405 3.51184 9.11399 3.13726 8 3.13726 C 6.88602 3.13726 5.85952 3.51184 5.0396 4.14193 L 4.46662 3.39521 C 5.44523 2.64317 6.67041 2.19608 8 2.19608 Z" stroke-linecap="round" />
</g>
		<g transform="matrix(1 0 0 1 -25.81 0.07)"  >
<path style="stroke: none; stroke-width: 1; stroke-dasharray: none; stroke-linecap: butt; stroke-dashoffset: 0; stroke-linejoin: miter; stroke-miterlimit: 4; fill: rgb(0,0,0); fill-rule: nonzero; opacity: 1;" vector-effect="non-scaling-stroke"  transform=" translate(-3.19, -8.07)" d="M 3.34204 4.5369 L 4.09738 5.09849 C 3.49423 5.90843 3.13726 6.91253 3.13726 8 C 3.13726 9.14051 3.52989 10.1893 4.18737 11.0186 L 3.44944 11.6029 C 2.66471 10.613 2.19608 9.36125 2.19608 8 C 2.19608 6.70205 2.62214 5.5036 3.34204 4.5369 Z" stroke-linecap="round" />
</g>
		<g transform="matrix(1 0 0 1 -16.19 0.07)"  >
<path style="stroke: none; stroke-width: 1; stroke-dasharray: none; stroke-linecap: butt; stroke-dashoffset: 0; stroke-linejoin: miter; stroke-miterlimit: 4; fill: rgb(0,0,0); fill-rule: nonzero; opacity: 1;" vector-effect="non-scaling-stroke"  transform=" translate(-12.81, -8.07)" d="M 12.8627 8 C 12.8627 9.14051 12.4701 10.1893 11.8126 11.0186 L 12.5506 11.6029 C 13.3353 10.613 13.8039 9.36125 13.8039 8 C 13.8039 6.70205 13.3779 5.5036 12.658 4.5369 L 11.9026 5.09849 C 12.5058 5.90843 12.8627 6.91253 12.8627 8 Z" stroke-linecap="round" />
</g>
		<g transform="matrix(1 0 0 1 -21 0)"  >
<path style="stroke: none; stroke-width: 1; stroke-dasharray: none; stroke-linecap: butt; stroke-dashoffset: 0; stroke-linejoin: miter; stroke-miterlimit: 4; fill: rgb(0,0,0); fill-rule: nonzero; opacity: 1;" vector-effect="non-scaling-stroke"  transform=" translate(-8, -8)" d="M 10.3529 8 C 10.3529 9.29949 9.29949 10.3529 8 10.3529 C 6.70051 10.3529 5.64706 9.29949 5.64706 8 C 5.64706 6.70051 6.70051 5.64706 8 5.64706 C 9.29949 5.64706 10.3529 6.70051 10.3529 8 Z" stroke-linecap="round" />
</g>
		<g transform="matrix(1 0 0 1 -21 5.65)"  >
<path style="stroke: none; stroke-width: 1; stroke-dasharray: none; stroke-linecap: butt; stroke-dashoffset: 0; stroke-linejoin: miter; stroke-miterlimit: 4; fill: rgb(0,0,0); fill-rule: nonzero; opacity: 1;" vector-effect="non-scaling-stroke"  transform=" translate(-8, -13.65)" d="M 2.87389 14.1422 C 3.75688 12.4329 5.53805 11.2941 7.5516 11.2941 L 8.4484 11.2941 C 10.462 11.2941 12.2431 12.4329 13.1261 14.1422 C 11.7379 15.302 9.95045 16 8 16 C 6.04955 16 4.26212 15.302 2.87389 14.1422 Z" stroke-linecap="round" />
</g>
		<g transform="matrix(1 0 0 1 8.84 0)"  >
<path style="stroke: none; stroke-width: 1; stroke-dasharray: none; stroke-linecap: butt; stroke-dashoffset: 0; stroke-linejoin: miter; stroke-miterlimit: 4; fill: rgb(0,0,0); fill-rule: evenodd; opacity: 1;" vector-effect="non-scaling-stroke"  transform=" translate(-37.84, -8)" d="M 29.5179 5.86285 C 29.8011 6.05162 30.1314 6.146 30.5089 6.146 C 30.8365 6.146 31.1224 6.07105 31.3667 5.92115 C 31.6165 5.7657 31.8192 5.55472 31.9746 5.28823 L 31.9746 6.03774 L 32.5742 6.03774 L 32.5742 0 L 31.958 0 L 31.958 2.51503 C 31.8025 2.25409 31.5999 2.05144 31.35 1.90709 C 31.1058 1.75719 30.8254 1.68224 30.5089 1.68224 C 30.1314 1.68224 29.8011 1.77662 29.5179 1.96539 C 29.2348 2.15416 29.0127 2.41787 28.8517 2.75654 C 28.6907 3.08966 28.6102 3.47552 28.6102 3.91412 C 28.6102 4.35273 28.6907 4.74136 28.8517 5.08003 C 29.0127 5.41315 29.2348 5.67409 29.5179 5.86285 Z M 31.3167 5.36318 C 31.1113 5.50198 30.8726 5.57138 30.6005 5.57138 C 30.334 5.57138 30.0981 5.50198 29.8927 5.36318 C 29.6872 5.22438 29.5262 5.03006 29.4096 4.78023 C 29.293 4.53039 29.2348 4.24169 29.2348 3.91412 C 29.2348 3.58656 29.293 3.29786 29.4096 3.04802 C 29.5262 2.79818 29.6872 2.60386 29.8927 2.46506 C 30.0981 2.32627 30.334 2.25687 30.6005 2.25687 C 30.8726 2.25687 31.1113 2.32627 31.3167 2.46506 C 31.5277 2.60386 31.6915 2.79818 31.8081 3.04802 C 31.9302 3.29786 31.9913 3.58656 31.9913 3.91412 C 31.9913 4.24169 31.9302 4.53039 31.8081 4.78023 C 31.6915 5.03006 31.5277 5.22438 31.3167 5.36318 Z M 22.647 6.03774 L 21.9891 4.38049 L 19.3241 4.38049 L 18.6746 6.03774 L 18 6.03774 L 20.3401 0.24151 L 20.9981 0.24151 L 23.3465 6.03774 L 22.647 6.03774 Z M 21.7559 3.7892 L 20.6566 1.00768 L 19.5573 3.7892 L 21.7559 3.7892 Z M 26.9495 4.33052 L 26.9495 1.7905 L 27.5658 1.7905 L 27.5658 6.03774 L 26.9662 6.03774 L 26.9662 5.4298 C 26.8274 5.65743 26.6469 5.8351 26.4249 5.96279 C 26.2028 6.08493 25.9557 6.146 25.6837 6.146 C 25.2062 6.146 24.8259 5.98777 24.5428 5.67131 C 24.2652 5.3493 24.1264 4.92735 24.1264 4.40547 L 24.1264 1.7905 L 24.7426 1.7905 L 24.7426 4.33052 C 24.7426 4.70805 24.8398 5.01063 25.0341 5.23826 C 25.2284 5.46034 25.4894 5.57138 25.8169 5.57138 C 26.1278 5.57138 26.3943 5.46311 26.6164 5.24659 C 26.8385 5.03006 26.9495 4.72471 26.9495 4.33052 Z M 34.1947 1.14093 C 34.0671 1.14093 33.956 1.09651 33.8616 1.00768 C 33.7728 0.913295 33.7284 0.802256 33.7284 0.674561 C 33.7284 0.546866 33.7728 0.438604 33.8616 0.349773 C 33.956 0.255389 34.0671 0.208198 34.1947 0.208198 C 34.3224 0.208198 34.4307 0.255389 34.5195 0.349773 C 34.6139 0.438604 34.6611 0.546866 34.6611 0.674561 C 34.6611 0.802256 34.6139 0.913295 34.5195 1.00768 C 34.4307 1.09651 34.3224 1.14093 34.1947 1.14093 Z M 33.8866 1.7905 L 34.5029 1.7905 L 34.5029 6.03774 L 33.8866 6.03774 L 33.8866 1.7905 Z M 36.5051 5.86285 C 36.8104 6.05162 37.1602 6.146 37.5544 6.146 C 37.9486 6.146 38.2956 6.05162 38.5954 5.86285 C 38.9008 5.67409 39.1367 5.41315 39.3033 5.08003 C 39.4754 4.74136 39.5614 4.35273 39.5614 3.91412 C 39.5614 3.47552 39.4754 3.08966 39.3033 2.75654 C 39.1367 2.41787 38.9008 2.15416 38.5954 1.96539 C 38.2956 1.77662 37.9486 1.68224 37.5544 1.68224 C 37.1602 1.68224 36.8104 1.77662 36.5051 1.96539 C 36.2053 2.15416 35.9693 2.41787 35.7972 2.75654 C 35.6307 3.08966 35.5474 3.47552 35.5474 3.91412 C 35.5474 4.35273 35.6307 4.74136 35.7972 5.08003 C 35.9693 5.41315 36.2053 5.67409 36.5051 5.86285 Z M 38.5454 5.12167 C 38.29 5.42148 37.9597 5.57138 37.5544 5.57138 C 37.1491 5.57138 36.816 5.42148 36.5551 5.12167 C 36.2997 4.81631 36.172 4.4138 36.172 3.91412 C 36.172 3.41445 36.2997 3.01471 36.5551 2.7149 C 36.816 2.40954 37.1491 2.25687 37.5544 2.25687 C 37.9597 2.25687 38.29 2.40954 38.5454 2.7149 C 38.8064 3.01471 38.9368 3.41445 38.9368 3.91412 C 38.9368 4.4138 38.8064 4.81631 38.5454 5.12167 Z M 42.1327 7.91151 C 41.8759 7.91151 41.6538 7.82129 41.4664 7.64085 C 41.286 7.46041 41.1958 7.23834 41.1958 6.97462 C 41.1958 6.7109 41.286 6.48882 41.4664 6.30839 C 41.6538 6.12795 41.8759 6.03773 42.1327 6.03773 C 42.3964 6.03773 42.6185 6.12795 42.7989 6.30839 C 42.9863 6.48882 43.08 6.7109 43.08 6.97462 C 43.08 7.23834 42.9863 7.46041 42.7989 7.64085 C 42.6185 7.82129 42.3964 7.91151 42.1327 7.91151 Z M 41.3415 13.866 L 41.3415 8.44241 L 42.9238 8.44241 L 42.9238 13.866 L 41.3415 13.866 Z M 18.8744 13.5537 C 19.3116 13.866 19.8773 14.0221 20.5712 14.0221 C 21.0015 14.0221 21.3867 13.9527 21.7267 13.8139 C 22.0668 13.6682 22.334 13.4635 22.5283 13.1997 C 22.7296 12.9291 22.8302 12.6098 22.8302 12.242 C 22.8302 11.8118 22.6983 11.4405 22.4346 11.1282 C 22.1709 10.8159 21.7719 10.625 21.2375 10.5556 L 20.488 10.4515 C 20.2312 10.4168 20.0473 10.3682 19.9362 10.3058 C 19.8252 10.2364 19.7697 10.1392 19.7697 10.0143 C 19.7697 9.87551 19.8321 9.761 19.9571 9.67078 C 20.0889 9.57362 20.2624 9.52504 20.4776 9.52504 C 20.6927 9.52504 20.8697 9.57015 21.0085 9.66037 C 21.1473 9.74365 21.234 9.85122 21.2687 9.98308 L 22.7469 9.98308 C 22.7122 9.68466 22.6012 9.40707 22.4138 9.15029 C 22.2264 8.89351 21.9662 8.68531 21.6331 8.52569 C 21.3069 8.36608 20.9148 8.28627 20.4567 8.28627 C 20.0403 8.28627 19.6621 8.36261 19.3221 8.51528 C 18.9889 8.66102 18.7218 8.87269 18.5205 9.15029 C 18.3262 9.42094 18.229 9.74018 18.229 10.108 C 18.229 10.5452 18.3539 10.9026 18.6038 11.1802 C 18.8536 11.4578 19.2422 11.6348 19.7697 11.7111 L 20.5296 11.8152 C 20.8141 11.8569 21.0085 11.9193 21.1126 12.0026 C 21.2236 12.0789 21.2791 12.183 21.2791 12.3149 C 21.2791 12.4468 21.2132 12.5578 21.0813 12.648 C 20.9495 12.7382 20.7656 12.7833 20.5296 12.7833 C 20.2867 12.7833 20.0854 12.7313 19.9258 12.6272 C 19.7662 12.5231 19.6725 12.4051 19.6448 12.2733 L 18.1457 12.2733 C 18.2013 12.8076 18.4442 13.2344 18.8744 13.5537 Z M 23.7646 8.44241 L 23.7646 16 L 25.3365 16 L 25.3365 13.3038 C 25.517 13.5329 25.7321 13.7098 25.982 13.8347 C 26.2387 13.9597 26.5267 14.0221 26.846 14.0221 C 27.3109 14.0221 27.7204 13.9007 28.0743 13.6578 C 28.4352 13.4149 28.7163 13.0818 28.9175 12.6584 C 29.1257 12.2281 29.2298 11.7285 29.2298 11.1594 C 29.2298 10.5973 29.1257 10.1011 28.9175 9.67078 C 28.7163 9.23357 28.4352 8.89351 28.0743 8.65061 C 27.7204 8.40771 27.3109 8.28627 26.846 8.28627 C 26.5059 8.28627 26.204 8.35567 25.9403 8.49446 C 25.6766 8.62632 25.4545 8.81717 25.2741 9.06701 L 25.2741 8.44241 L 23.7646 8.44241 Z M 27.2936 12.242 C 27.0785 12.5057 26.7974 12.6376 26.4504 12.6376 C 26.1034 12.6376 25.8189 12.5057 25.5968 12.242 C 25.3747 11.9783 25.2637 11.6174 25.2637 11.1594 C 25.2637 10.7014 25.3747 10.3405 25.5968 10.0768 C 25.8189 9.80611 26.1034 9.67078 26.4504 9.67078 C 26.7974 9.67078 27.0785 9.80611 27.2936 10.0768 C 27.5157 10.3405 27.6267 10.7014 27.6267 11.1594 C 27.6267 11.6174 27.5157 11.9783 27.2936 12.242 Z M 31.7302 14.0221 C 31.1611 14.0221 30.7065 13.866 30.3665 13.5537 C 30.0264 13.2344 29.8564 12.8146 29.8564 12.2941 C 29.8564 11.725 30.0611 11.2843 30.4706 10.972 C 30.88 10.6597 31.4456 10.5036 32.1674 10.5036 L 33.1563 10.5036 L 33.1563 10.3162 C 33.1563 10.0455 33.0765 9.84775 32.9169 9.72283 C 32.7642 9.59097 32.5595 9.52504 32.3027 9.52504 C 32.0737 9.52504 31.8898 9.57015 31.751 9.66037 C 31.6122 9.74365 31.5254 9.84081 31.4907 9.95185 L 30.0021 9.95185 C 30.0923 9.47993 30.3387 9.08436 30.7412 8.76512 C 31.1437 8.44588 31.6816 8.28627 32.3548 8.28627 C 33.0765 8.28627 33.6456 8.46323 34.062 8.81717 C 34.4853 9.17111 34.697 9.72977 34.697 10.4932 L 34.697 13.866 L 33.2604 13.866 L 33.2604 13.2518 C 33.0939 13.5224 32.8683 13.7202 32.5838 13.8452 C 32.3062 13.9631 32.0216 14.0221 31.7302 14.0221 Z M 32.1466 12.7938 C 32.3062 12.7938 32.4623 12.7591 32.615 12.6897 C 32.7746 12.6203 32.903 12.5196 33.0002 12.3878 C 33.1043 12.249 33.1563 12.0789 33.1563 11.8777 L 33.1563 11.5654 L 32.2403 11.5654 C 31.9627 11.5654 31.7475 11.6209 31.5948 11.7319 C 31.4491 11.836 31.3762 11.9887 31.3762 12.19 C 31.3762 12.3843 31.4491 12.5335 31.5948 12.6376 C 31.7406 12.7417 31.9245 12.7938 32.1466 12.7938 Z M 35.6633 12.5751 L 35.6633 13.866 L 40.3478 13.866 L 40.3478 12.5127 L 37.7557 12.5127 L 40.2957 9.73324 L 40.2957 8.44241 L 35.6633 8.44241 L 35.6633 9.7957 L 38.2033 9.7957 L 35.6633 12.5751 Z M 44.3649 13.5537 C 44.705 13.866 45.1596 14.0221 45.7286 14.0221 C 46.0201 14.0221 46.3046 13.9631 46.5822 13.8452 C 46.8668 13.7202 47.0923 13.5224 47.2589 13.2518 L 47.2589 13.866 L 48.6955 13.866 L 48.6955 10.4932 C 48.6955 9.72977 48.4838 9.17111 48.0604 8.81717 C 47.6441 8.46323 47.075 8.28627 46.3532 8.28627 C 45.6801 8.28627 45.1422 8.44588 44.7397 8.76512 C 44.3372 9.08436 44.0908 9.47993 44.0006 9.95185 L 45.4892 9.95185 C 45.5239 9.84081 45.6107 9.74365 45.7495 9.66037 C 45.8883 9.57015 46.0722 9.52504 46.3012 9.52504 C 46.558 9.52504 46.7627 9.59097 46.9154 9.72283 C 47.075 9.84775 47.1548 10.0455 47.1548 10.3162 L 47.1548 10.5036 L 46.1658 10.5036 C 45.4441 10.5036 44.8785 10.6597 44.469 10.972 C 44.0596 11.2843 43.8549 11.725 43.8549 12.2941 C 43.8549 12.8146 44.0249 13.2344 44.3649 13.5537 Z M 46.6135 12.6897 C 46.4608 12.7591 46.3046 12.7938 46.145 12.7938 C 45.923 12.7938 45.739 12.7417 45.5933 12.6376 C 45.4476 12.5335 45.3747 12.3843 45.3747 12.19 C 45.3747 11.9887 45.4476 11.836 45.5933 11.7319 C 45.746 11.6209 45.9611 11.5654 46.2387 11.5654 L 47.1548 11.5654 L 47.1548 11.8777 C 47.1548 12.0789 47.1027 12.249 46.9986 12.3878 C 46.9015 12.5196 46.7731 12.6203 46.6135 12.6897 Z M 49.9012 13.866 L 49.9012 6.3188 L 51.4835 6.3188 L 51.4835 13.866 L 49.9012 13.866 Z M 53.1747 13.2518 C 53.6605 13.7653 54.3302 14.0221 55.1838 14.0221 C 55.8154 14.0221 56.3428 13.8799 56.7661 13.5953 C 57.1895 13.3038 57.4671 12.9152 57.5989 12.4294 L 56.027 12.4294 C 55.9715 12.5266 55.8744 12.6098 55.7356 12.6792 C 55.5968 12.7486 55.4163 12.7833 55.1942 12.7833 C 54.528 12.7833 54.1359 12.4086 54.0179 11.6591 L 57.6822 11.6591 L 57.6822 11.1594 C 57.6822 10.278 57.4636 9.58056 57.0264 9.06701 C 56.5892 8.54651 55.9646 8.28627 55.1526 8.28627 C 54.5905 8.28627 54.1047 8.41119 53.6952 8.66102 C 53.2927 8.91086 52.9839 9.25092 52.7687 9.68119 C 52.5536 10.1045 52.446 10.5869 52.446 11.1282 C 52.446 12.0234 52.6889 12.7313 53.1747 13.2518 Z M 54.0179 10.5869 C 54.1359 9.87898 54.5107 9.52504 55.1422 9.52504 C 55.4684 9.52504 55.7147 9.62567 55.8813 9.82693 C 56.0548 10.0212 56.1485 10.2746 56.1624 10.5869 L 54.0179 10.5869 Z" stroke-linecap="round" />
</g>
</g>
</g>
</svg>